<svg xmlns="http://www.w3.org/2000/svg" width="260" height="260" viewBox="0 0 260 260">
  <g fill="none" stroke="#8293ca" stroke-linecap="round" stroke-linejoin="round" opacity=".38">
    <path d="M-18 52c26-27 51-30 76-7s50 20 76-6 51-24 77 1 48 25 72 2" stroke-width="1.5"/>
    <path d="M-25 66c28-24 54-25 79-3s49 18 73-5 50-22 77 1 51 25 81 0" stroke-width=".8" opacity=".62"/>

    <ellipse cx="67" cy="116" rx="31" ry="19" stroke-width="1.4" transform="rotate(-18 67 116)"/>
    <ellipse cx="67" cy="116" rx="21" ry="12" stroke-width=".85" opacity=".65" transform="rotate(-18 67 116)"/>
    <circle cx="67" cy="116" r="3" fill="#8293ca" stroke="none" opacity=".55"/>

    <path d="M157 83c13-16 37-17 51-3s13 35-2 48-38 12-50-3-12-30 1-42z" stroke-width="1.3"/>
    <path d="M169 88c8-9 23-10 31-2s8 22-1 30-23 7-31-2-7-18 1-26z" stroke-width=".75" opacity=".62"/>

    <path d="M-16 191c31-19 57-17 79 5s47 25 75 5 56-20 80 3 45 24 66 11" stroke-width="1.5"/>
    <path d="M-20 206c31-15 56-12 78 8s49 21 76 3 54-18 80 3 47 22 70 12" stroke-width=".8" opacity=".62"/>

    <path d="M111 151c0-11 9-20 20-20s20 9 20 20-9 20-20 20-20-9-20-20z" stroke-width="1.15"/>
    <path d="M120 151c0-6 5-11 11-11s11 5 11 11-5 11-11 11-11-5-11-11z" stroke-width=".75" opacity=".66"/>

    <path d="M19 19c10 0 18 8 18 18s-8 18-18 18" stroke-width="1.1"/>
    <path d="M19 27c6 0 10 4 10 10s-4 10-10 10" stroke-width=".7" opacity=".64"/>

    <path d="M226 151c12 0 21 9 21 21s-9 21-21 21-21-9-21-21" stroke-width="1.1"/>
    <path d="M226 160c7 0 12 5 12 12s-5 12-12 12-12-5-12-12" stroke-width=".7" opacity=".64"/>

    <path d="M94 15c4 13 13 22 26 26-13 4-22 13-26 26-4-13-13-22-26-26 13-4 22-13 26-26z" stroke-width=".9" opacity=".78"/>
    <path d="M210 208c3 9 9 15 18 18-9 3-15 9-18 18-3-9-9-15-18-18 9-3 15-9 18-18z" stroke-width=".85" opacity=".72"/>

    <circle cx="21" cy="145" r="4" stroke-width=".8"/>
    <circle cx="241" cy="69" r="6" stroke-width=".8"/>
    <circle cx="166" cy="221" r="3" fill="#8293ca" stroke="none" opacity=".42"/>
    <circle cx="53" cy="229" r="2.5" fill="#8293ca" stroke="none" opacity=".5"/>
    <circle cx="143" cy="36" r="2" fill="#8293ca" stroke="none" opacity=".46"/>

    <path d="M44 171c7-8 18-8 25-1s7 18-1 25-18 7-25-1-6-16 1-23z" stroke-width=".85" opacity=".7"/>
    <path d="M220 103c5-6 14-6 19-1s5 14-1 19-14 5-19-1-4-12 1-17z" stroke-width=".8" opacity=".68"/>
  </g>
</svg>
