<svg xmlns="http://www.w3.org/2000/svg" width="260" height="260" viewBox="0 0 260 260">
  <g fill="none" stroke="#8293ca" stroke-linecap="round" stroke-linejoin="round" stroke-width="1.2" opacity=".38">
    <path d="M20 29h31a9 9 0 0 1 9 9v12a9 9 0 0 1-9 9H38l-9 8v-8h-9a9 9 0 0 1-9-9V38a9 9 0 0 1 9-9z"/>
    <path d="M23 40h24M23 48h16"/>

    <path d="M103 21l3 8 8 3-8 3-3 8-3-8-8-3 8-3z"/>
    <path d="M159 20l-9 17h9l-5 14 17-21h-10l5-10z"/>

    <path d="M210 26h22l7 7v29h-29z"/>
    <path d="M232 26v8h7M216 43h16M216 50h11"/>

    <path d="M79 83c-5-5-13-5-18 0l-12 12a10 10 0 0 0 14 14l16-16a7 7 0 0 0-10-10L55 97a4 4 0 0 0 6 6l12-12"/>

    <path d="M127 84h25a8 8 0 0 1 8 8v11a8 8 0 0 1-8 8h-10l-8 7v-7h-7a8 8 0 0 1-8-8V92a8 8 0 0 1 8-8z"/>
    <path d="M130 95h18M130 102h12"/>

    <g transform="translate(207 79)">
      <path d="M16 0C8 3 3 10 1 19L0 26c1 4 4 7 8 9l8 3 8-3c4-2 7-5 8-9l-1-7C29 10 24 3 16 0z"/>
      <path d="M5 20c2-5 5-8 8-8l3 5 3-5c3 0 6 3 8 8 2 6-1 12-6 15-3 2-7 2-10 0-5-3-8-9-6-15z"/>
      <path d="M12 27c0-2.5 1.7-4 4-4s4 1.5 4 4-1.7 4-4 4-4-1.5-4-4z" fill="#8293ca" stroke="none"/>
    </g>

    <path d="M19 143l24-10-7 23-8-8-9-5z"/>
    <path d="M28 148l7-7"/>

    <path d="M84 137l3 8 8 3-8 3-3 8-3-8-8-3 8-3z"/>
    <path d="M124 135h23l7 7v27h-30z"/>
    <path d="M147 135v8h7M130 152h16M130 159h10"/>

    <path d="M194 139h33a8 8 0 0 1 8 8v11a8 8 0 0 1-8 8h-13l-8 7v-7h-12a8 8 0 0 1-8-8v-11a8 8 0 0 1 8-8z"/>
    <path d="M198 150h24M198 157h15"/>

    <path d="M29 206h21a8 8 0 0 1 8 8v11a8 8 0 0 1-8 8h-8l-8 7v-7h-5a8 8 0 0 1-8-8v-11a8 8 0 0 1 8-8z"/>
    <path d="M31 217h16M31 224h10"/>

    <path d="M92 204l-8 16h8l-4 13 16-20h-9l5-9z"/>

    <g transform="translate(72 169) scale(.72)">
      <path d="M16 0C8 3 3 10 1 19L0 26c1 4 4 7 8 9l8 3 8-3c4-2 7-5 8-9l-1-7C29 10 24 3 16 0z"/>
      <path d="M5 20c2-5 5-8 8-8l3 5 3-5c3 0 6 3 8 8 2 6-1 12-6 15-3 2-7 2-10 0-5-3-8-9-6-15z"/>
      <path d="M12 27c0-2.5 1.7-4 4-4s4 1.5 4 4-1.7 4-4 4-4-1.5-4-4z" fill="#8293ca" stroke="none"/>
    </g>

    <path d="M143 208c-4-4-11-4-15 0l-10 10a8 8 0 0 0 12 12l13-13a6 6 0 0 0-8-8l-12 12a3 3 0 0 0 5 5l9-9"/>

    <path d="M211 206h21l7 7v26h-28z"/>
    <path d="M232 206v8h7M217 222h15M217 229h9"/>

    <circle cx="74" cy="28" r="2" fill="#8293ca" stroke="none"/>
    <circle cx="181" cy="63" r="2" fill="#8293ca" stroke="none"/>
    <circle cx="104" cy="119" r="1.7" fill="#8293ca" stroke="none"/>
    <circle cx="55" cy="177" r="2" fill="#8293ca" stroke="none"/>
    <circle cx="172" cy="193" r="1.7" fill="#8293ca" stroke="none"/>
    <circle cx="245" cy="126" r="2" fill="#8293ca" stroke="none"/>
  </g>
</svg>
