<svg xmlns="http://www.w3.org/2000/svg" viewBox="0 0 64 64" aria-hidden="true">
  <defs>
    <linearGradient id="hood" x1="14" y1="8" x2="50" y2="56" gradientUnits="userSpaceOnUse">
      <stop stop-color="#91a1ff"/>
      <stop offset=".48" stop-color="#596ff0"/>
      <stop offset="1" stop-color="#354ac8"/>
    </linearGradient>
    <linearGradient id="muzzle" x1="32" y1="24" x2="32" y2="53" gradientUnits="userSpaceOnUse">
      <stop stop-color="#f7f9ff"/>
      <stop offset="1" stop-color="#cbd4f5"/>
    </linearGradient>
  </defs>
  <path d="M32 4C20 8 12 18 9 31L6 45c-1 5 3 8 8 11l18 6 18-6c5-3 9-6 8-11l-3-14C52 18 44 8 32 4z" fill="url(#hood)"/>
  <path d="M17 31c3-7 8-11 15-8 7-3 12 1 15 8 3 8-1 19-7 24-4 3-12 3-16 0-6-5-10-16-7-24z" fill="url(#muzzle)"/>
  <path d="M23 25c3 2 6 3 9 3s6-1 9-3" fill="none" stroke="#253479" stroke-linecap="round" stroke-width="2.2" opacity=".65"/>
  <path d="M24 43c0-5 3-8 8-8s8 3 8 8c0 4-4 8-8 8s-8-4-8-8z" fill="#151a2c"/>
  <ellipse cx="29" cy="40" rx="2.7" ry="1.5" fill="#fff" opacity=".22" transform="rotate(-18 29 40)"/>
  <path d="M13 47c5 4 11 7 19 9 8-2 14-5 19-9" fill="none" stroke="#b5c0ff" stroke-linecap="round" stroke-width="1.4" opacity=".35"/>
</svg>
